<svg xmlns="http://www.w3.org/2000/svg" viewBox="0 0 900 620" role="img" aria-labelledby="t"><title id="t">Inventory Flow management interface</title><rect width="900" height="620" rx="30" fill="#fff"/><text x="54" y="75" fill="#202838" font-family="Arial,sans-serif" font-size="36" font-weight="700">Inventory</text><rect x="707" y="40" width="142" height="48" rx="10" fill="#e29a37"/><text x="741" y="70" fill="white" font-family="monospace" font-size="14">+ Add item</text><g fill="#f6eee1"><rect x="52" y="124" width="238" height="118" rx="14"/><rect x="331" y="124" width="238" height="118" rx="14"/><rect x="610" y="124" width="238" height="118" rx="14"/></g><g fill="#eceff2"><rect x="52" y="292" width="796" height="42" rx="8"/><rect x="52" y="356" width="796" height="42" rx="8"/><rect x="52" y="420" width="796" height="42" rx="8"/><rect x="52" y="484" width="796" height="42" rx="8"/></g><g fill="#e1ad62"><rect x="662" y="305" width="145" height="16" rx="8"/><rect x="662" y="369" width="100" height="16" rx="8"/><rect x="662" y="433" width="125" height="16" rx="8"/><rect x="662" y="497" width="75" height="16" rx="8"/></g></svg>
